<?xml version="1.0" encoding="UTF-8" standalone="no"?>
<!DOCTYPE svg PUBLIC "-//W3C//DTD SVG 1.1//EN"
 "http://www.w3.org/Graphics/SVG/1.1/DTD/svg11.dtd">
<!-- Generated by graphviz version 2.40.1 (0)
 -->
<!-- Title: G Pages: 1 -->
<svg width="165pt" height="204pt"
 viewBox="0.00 0.00 165.00 204.00" xmlns="http://www.w3.org/2000/svg" xmlns:xlink="http://www.w3.org/1999/xlink">
<g id="graph0" class="graph" transform="scale(1 1) rotate(0) translate(4 200)">
<title>G</title>
<polygon fill="#ffffff" stroke="transparent" points="-4,4 -4,-200 161,-200 161,4 -4,4"/>
<g id="clust1" class="cluster">
<title>cluster_Global</title>
<path fill="none" stroke="#c0c0c0" d="M20,-8C20,-8 137,-8 137,-8 143,-8 149,-14 149,-20 149,-20 149,-176 149,-176 149,-182 143,-188 137,-188 137,-188 20,-188 20,-188 14,-188 8,-182 8,-176 8,-176 8,-20 8,-20 8,-14 14,-8 20,-8"/>
<text text-anchor="middle" x="78.5" y="-175.2" font-family="Times,serif" font-size="11.00" fill="#c0c0c0">Global</text>
</g>
<!-- \\cAuthentification -->
<g id="node1" class="node">
<title>\\cAuthentification</title>
<polygon fill="none" stroke="#000000" points="141,-160 16,-160 16,-124 141,-124 141,-160"/>
<text text-anchor="middle" x="78.5" y="-139.2" font-family="Courier,monospace" font-size="11.00" fill="#000000">cAuthentification</text>
</g>
<!-- \\cGesTables -->
<g id="node2" class="node">
<title>\\cGesTables</title>
<polygon fill="none" stroke="#000000" points="120.5,-106 36.5,-106 36.5,-70 120.5,-70 120.5,-106"/>
<text text-anchor="middle" x="78.5" y="-85.2" font-family="Courier,monospace" font-size="11.00" fill="#000000">cGesTables</text>
</g>
<!-- \\PdoGsb -->
<g id="node3" class="node">
<title>\\PdoGsb</title>
<polygon fill="none" stroke="#000000" points="107,-52 50,-52 50,-16 107,-16 107,-52"/>
<text text-anchor="middle" x="78.5" y="-31.2" font-family="Courier,monospace" font-size="11.00" fill="#000000">PdoGsb</text>
</g>
</g>
</svg>
